<svg width="29" height="28" viewBox="0 0 29 28" fill="none" xmlns="http://www.w3.org/2000/svg">
<path d="M28.275 9.43598C28.2751 7.57834 27.7117 5.76399 26.6585 4.23058C25.6053 2.69717 24.1114 1.51618 22.3726 0.84231C20.6338 0.168438 18.7311 0.0331031 16.9137 0.454029C15.0963 0.874955 13.449 1.83251 12.1875 3.20129H0.487549V27.7853H25.1907V16.296C26.1602 15.4326 26.9361 14.3754 27.4676 13.1934C27.999 12.0113 28.2742 10.731 28.275 9.43598ZM23.5219 9.43598C23.5238 10.3261 23.2603 11.1968 22.765 11.9378C22.2695 12.6788 21.5645 13.2569 20.7389 13.5988C19.9134 13.9407 19.0046 14.0312 18.1273 13.8587C17.2502 13.6861 16.4442 13.2584 15.8112 12.6297C15.1783 12.0009 14.7471 11.1993 14.572 10.3264C14.3968 9.45343 14.4858 8.54845 14.8275 7.72589C15.1692 6.90331 15.7484 6.20017 16.4917 5.70544C17.235 5.2107 18.1091 4.94663 19.0032 4.94662C20.2 4.94662 21.3479 5.4193 22.1951 6.26095C23.0423 7.10259 23.5195 8.24445 23.5219 9.43598ZM20.4375 23.0533H5.24067V7.93329H9.8719C9.78247 8.42932 9.7354 8.93201 9.73128 9.43598C9.73381 11.8834 10.7114 14.2298 12.4497 15.9603C14.188 17.6908 16.5448 18.6641 19.0032 18.6666C19.4838 18.6641 19.9634 18.6235 20.4375 18.5453V23.0533Z" fill="#737680"/>
</svg>
