<svg width="24" height="25" viewBox="0 0 24 25" fill="none" xmlns="http://www.w3.org/2000/svg">
<path d="M11.5077 15.7465L11.4909 15.7304C11.9633 15.7785 12.4403 15.7198 12.8875 15.5586C13.3347 15.3973 13.7409 15.1376 14.0767 14.7981C14.4126 14.4585 14.6696 14.0476 14.8293 13.5952C14.989 13.1428 15.0473 12.6602 15 12.1822L15.0168 12.1982C14.9699 11.6358 15.0449 11.0699 15.2364 10.5398C15.428 10.0098 15.7315 9.52851 16.1259 9.1294C16.5202 8.73035 16.9959 8.42319 17.5198 8.22935C18.0435 8.03552 18.6029 7.95969 19.1586 8.00717L19.1418 7.99109C19.8067 8.05427 20.4746 7.90838 21.0545 7.57333C21.6344 7.23827 22.0979 6.73035 22.3821 6.11886C22.6663 5.50738 22.7571 4.82209 22.6421 4.15645C22.5272 3.49082 22.2122 2.87726 21.7401 2.39946C21.2678 1.92167 20.6615 1.60288 20.0037 1.48661C19.3459 1.37034 18.6687 1.46222 18.0644 1.74974C17.4601 2.03725 16.9582 2.5064 16.627 3.09319C16.2959 3.67998 16.1518 4.35584 16.2142 5.02859L16.1983 5.01163C16.2454 5.57403 16.1706 6.14005 15.979 6.67016C15.7875 7.20026 15.484 7.68168 15.0896 8.08078C14.6952 8.47989 14.2194 8.78706 13.6956 8.98083C13.1717 9.17458 12.6123 9.25029 12.0565 9.2027L12.0724 9.21967C11.6001 9.17154 11.1231 9.2302 10.6758 9.39145C10.2286 9.55261 9.82248 9.81243 9.48665 10.152C9.15083 10.4915 8.8938 10.9024 8.73408 11.3548C8.57439 11.8073 8.51606 12.2898 8.5633 12.7679L8.54742 12.7518C8.59417 13.3141 8.51913 13.88 8.32753 14.41C8.13591 14.9399 7.83235 15.4213 7.43802 15.8203C7.04367 16.2193 6.56805 16.5265 6.04432 16.7204C5.52059 16.9142 4.96137 16.9902 4.40565 16.9429L4.42153 16.959C3.7567 16.8957 3.08878 17.0416 2.5089 17.3767C1.92901 17.7118 1.46538 18.2197 1.18125 18.8312C0.897116 19.4427 0.806308 20.128 0.921213 20.7936C1.03612 21.4592 1.35116 22.0728 1.82333 22.5506C2.29551 23.0284 2.90185 23.3472 3.55965 23.4634C4.21745 23.5797 4.89469 23.4878 5.49898 23.2003C6.10328 22.9128 6.60522 22.4437 6.93633 21.8569C7.26744 21.27 7.41162 20.5942 7.34918 19.9215L7.36595 19.9375C7.31903 19.3751 7.39397 18.8092 7.58552 18.2791C7.77707 17.7491 8.08063 17.2678 8.475 16.8687C8.86936 16.4697 9.34504 16.1624 9.86889 15.9687C10.3927 15.7748 10.952 15.699 11.5077 15.7465Z" fill="#737680"/>
<path d="M18.0167 11.0455C17.6823 11.386 17.4263 11.7969 17.2667 12.2488C17.1072 12.7009 17.0482 13.183 17.0938 13.6607L17.0779 13.6447C17.1248 14.2071 17.0499 14.773 16.8584 15.303C16.6668 15.833 16.3632 16.3144 15.9689 16.7135C15.5745 17.1125 15.0988 17.4197 14.575 17.6136C14.0512 17.8074 13.4919 17.8832 12.9361 17.8357L12.952 17.8518C12.2873 17.7892 11.6196 17.9355 11.04 18.271C10.4604 18.6064 9.99728 19.1146 9.71352 19.7262C9.42984 20.3378 9.33949 21.023 9.45472 21.6885C9.56996 22.3539 9.88522 22.9672 10.3575 23.4447C10.8299 23.9222 11.4362 24.2407 12.0939 24.3567C12.7517 24.4728 13.4288 24.3807 14.0329 24.093C14.637 23.8055 15.1388 23.3363 15.4698 22.7495C15.8008 22.1627 15.9448 21.487 15.8823 20.8143L15.8991 20.8304C15.8522 20.268 15.9271 19.7021 16.1187 19.1721C16.3103 18.642 16.6138 18.1606 17.0082 17.7615C17.4025 17.3625 17.8782 17.0554 18.402 16.8615C18.9258 16.6677 19.4851 16.5918 20.0408 16.6393L20.0241 16.6232C20.5672 16.6727 21.1137 16.5826 21.6132 16.3613C22.1127 16.14 22.5488 15.7948 22.8813 15.3575C23.2139 14.9203 23.4319 14.4051 23.5153 13.8599C23.5987 13.3147 23.5447 12.757 23.3582 12.2385C23.1719 11.7199 22.8593 11.2574 22.4492 10.8938C22.0392 10.5301 21.545 10.2772 21.0126 10.1581C20.4802 10.0392 19.9268 10.0581 19.4035 10.2133C18.8803 10.3684 18.4042 10.6547 18.0194 11.0455H18.0167Z" fill="#737680"/>
<path d="M5.59415 13.9544C5.92858 13.6141 6.18463 13.2032 6.34401 12.7511C6.5034 12.2991 6.5622 11.8169 6.51621 11.3393L6.53298 11.3553C6.48603 10.7928 6.56099 10.2267 6.75265 9.6965C6.9443 9.16632 7.24803 8.68489 7.6426 8.28579C8.03717 7.88669 8.51308 7.57956 9.03707 7.38586C9.5611 7.19214 10.1206 7.11652 10.6765 7.16427L10.6597 7.14819C11.3243 7.2112 11.992 7.06523 12.5716 6.73019C13.1512 6.39517 13.6146 5.88737 13.8986 5.27608C14.1825 4.66478 14.2732 3.97973 14.1583 3.31435C14.0435 2.64896 13.7285 2.03564 13.2565 1.55802C12.7845 1.08039 12.1784 0.761714 11.5208 0.645443C10.8633 0.529172 10.1863 0.620967 9.58219 0.908311C8.97804 1.19565 8.47626 1.66455 8.14517 2.25107C7.81408 2.83759 7.66983 3.51318 7.7321 4.18569L7.71621 4.16962C7.76312 4.73199 7.68819 5.29794 7.49663 5.82798C7.30508 6.35802 7.00152 6.83936 6.60715 7.23844C6.21278 7.63751 5.73709 7.94468 5.21329 8.13851C4.68949 8.33234 4.1302 8.40817 3.57445 8.36069L3.59033 8.37677C3.0473 8.32749 2.50077 8.41771 2.00137 8.63907C1.50198 8.86043 1.06588 9.20578 0.733489 9.6431C0.401097 10.0803 0.183167 10.5955 0.0998949 11.1407C0.0166225 11.686 0.070701 12.2436 0.25712 12.762C0.443539 13.2805 0.756267 13.7429 1.16632 14.1065C1.57638 14.4702 2.0705 14.7231 2.60289 14.842C3.13528 14.9609 3.68871 14.9419 4.21192 14.7868C4.73512 14.6316 5.21116 14.3453 5.59591 13.9544H5.59415Z" fill="#737680"/>
</svg>
