<svg width="22" height="28" viewBox="0 0 22 28" fill="none" xmlns="http://www.w3.org/2000/svg">
<path d="M12.4154 4.34003V23.66C14.9492 23.66 17.3793 22.6423 19.1709 20.8307C20.9626 19.0191 21.9692 16.562 21.9692 14C21.9692 11.438 20.9626 8.98098 19.1709 7.16938C17.3793 5.35778 14.9492 4.34003 12.4154 4.34003Z" fill="#737680"/>
<path d="M12.4155 4.34002V0.373352H0.0462036V27.6267H12.4155V23.66C9.88164 23.66 7.45154 22.6423 5.65984 20.8307C3.86815 19.0191 2.86159 16.562 2.86159 14C2.86159 11.438 3.86815 8.98097 5.65984 7.16937C7.45154 5.35777 9.88164 4.34002 12.4155 4.34002Z" fill="#737680"/>
</svg>
