<svg width="28" height="24" viewBox="0 0 28 24" fill="none" xmlns="http://www.w3.org/2000/svg">
<path d="M0.467731 10.57C1.21801 7.60469 2.95562 4.97144 5.4039 3.08954C7.85219 1.20764 10.8704 0.185303 13.9779 0.185303C17.0854 0.185303 20.1036 1.20764 22.5519 3.08954C25.0002 4.97144 26.7378 7.60469 27.4881 10.57H26.2677C24.2091 10.5402 22.1927 11.1452 20.5016 12.3C20.404 12.3695 20.3021 12.433 20.1966 12.49H20.0542C19.9486 12.433 19.8467 12.3695 19.7491 12.3C18.0431 11.1719 16.0338 10.5694 13.9779 10.5694C11.922 10.5694 9.91276 11.1719 8.20672 12.3C8.10912 12.3695 8.00723 12.433 7.90163 12.49H7.75926C7.65366 12.433 7.55177 12.3695 7.45417 12.3C5.76312 11.1452 3.7467 10.5402 1.68807 10.57H0.467731ZM24.0711 16.84C24.6976 16.3603 25.474 16.1093 26.2677 16.13H27.905V12.92H26.2677C24.8696 12.9034 23.5036 13.3313 22.3728 14.14C21.7365 14.6013 20.9667 14.8502 20.1762 14.8502C19.3856 14.8502 18.6159 14.6013 17.9796 14.14C16.8202 13.3464 15.4414 12.921 14.0288 12.921C12.6161 12.921 11.2373 13.3464 10.0779 14.14C9.4416 14.6013 8.67183 14.8502 7.88129 14.8502C7.09076 14.8502 6.32099 14.6013 5.68468 14.14C4.54 13.321 3.1543 12.8925 1.73892 12.92H0.0507812V16.13H1.68807C2.48181 16.1093 3.25823 16.3603 3.88468 16.84C5.04198 17.6342 6.41921 18.06 7.83044 18.06C9.24166 18.06 10.6189 17.6342 11.7762 16.84C12.4035 16.3618 13.1793 16.111 13.9728 16.13C14.7668 16.1076 15.5438 16.3588 16.1694 16.84C17.3289 17.6337 18.7076 18.0591 20.1203 18.0591C21.5329 18.0591 22.9117 17.6337 24.0711 16.84ZM24.0711 22.58C24.6976 22.1003 25.474 21.8493 26.2677 21.87H27.905V18.66H26.2677C24.8696 18.6434 23.5036 19.0713 22.3728 19.88C21.7365 20.3413 20.9667 20.5902 20.1762 20.5902C19.3856 20.5902 18.6159 20.3413 17.9796 19.88C16.8202 19.0864 15.4414 18.661 14.0288 18.661C12.6161 18.661 11.2373 19.0864 10.0779 19.88C9.4416 20.3413 8.67183 20.5902 7.88129 20.5902C7.09076 20.5902 6.32099 20.3413 5.68468 19.88C4.54 19.061 3.1543 18.6325 1.73892 18.66H0.0507812V21.87H1.68807C2.48181 21.8493 3.25823 22.1003 3.88468 22.58C5.04198 23.3742 6.41921 23.8 7.83044 23.8C9.24166 23.8 10.6189 23.3742 11.7762 22.58C12.4035 22.1018 13.1793 21.851 13.9728 21.87C14.7668 21.8476 15.5438 22.0988 16.1694 22.58C17.3289 23.3737 18.7076 23.7991 20.1203 23.7991C21.5329 23.7991 22.9117 23.3737 24.0711 22.58Z" fill="#737680"/>
</svg>
