<svg width="20" height="20" viewBox="0 0 20 20" fill="none" xmlns="http://www.w3.org/2000/svg">
<path d="M10.4648 0.830236L10.4649 0.830253L12.4937 5.90276L12.4937 5.90285C12.706 6.43338 13.1924 6.80884 13.7652 6.85658L19.0312 7.29562C19.453 7.33079 19.6907 7.92656 19.3143 8.26181L19.6469 8.63516L19.3143 8.26181L15.3023 11.8358C15.3023 11.8358 15.3022 11.8358 15.3022 11.8359C14.8759 12.2155 14.6959 12.8036 14.8233 13.3585L16.049 18.7023L16.049 18.7023C16.1693 19.227 15.6408 19.5201 15.3011 19.3043L10.7926 16.4407C10.7926 16.4407 10.7926 16.4407 10.7926 16.4406C10.3069 16.1321 9.69298 16.1321 9.20734 16.4407L4.69891 19.3043C4.35916 19.5201 3.83062 19.227 3.95097 18.7023L5.17675 13.3584C5.17675 13.3584 5.17676 13.3584 5.17676 13.3584C5.30408 12.8036 5.12408 12.2155 4.69784 11.8358C4.69782 11.8358 4.69781 11.8358 4.69779 11.8358L0.685641 8.26181C0.309295 7.92656 0.547005 7.33079 0.968829 7.29562L6.23489 6.85658C6.23489 6.85658 6.2349 6.85658 6.2349 6.85658C6.80774 6.80883 7.2941 6.43337 7.50632 5.90276L9.53512 0.830252C9.71125 0.389892 10.2888 0.389945 10.4648 0.830236Z" stroke="#CF6F49"/>
</svg>
